# Alias OBJ Model File
# Exported from SketchUp, (c) 2000-2012 Trimble Navigation Limited
# File units = meters

mtllib body.mtl

g Mesh1 Model

usemtl M_0133_Gray
v 1.45 0 -1.5
vt -57.0866 59.0551
vn 0 -1 -0
v 0 0 -0
vt 0 0
v -8.3471e-016 0 -1.5
vt 3.28626e-014 59.0551
f 1/1/1 2/2/1 3/3/1

v 1.45 0 1.15055e-015
vt -57.0866 -4.52971e-014
f 2/2/1 1/1/1 4/4/1

v 1.5 0 7.89591e-016
vt -59.0551 -3.10862e-014
f 4/4/1 1/1/1 5/5/1

v 1.5 0 -1.5
vt -59.0551 59.0551
f 5/5/1 1/1/1 6/6/1

usemtl M_0130_Gainsboro
v 1.45 0.1 -1.5
vt -57.0866 3.93701
vn -5.77529e-014 0 -1
vt -59.0551 0
vt -57.0866 0
f 7/7/2 6/8/2 1/9/2

v 1.5 0.1 -1.5
vt -59.0551 3.93701
f 6/8/2 7/7/2 8/10/2

vt 57.0866 59.0551
vn 0 1 -0
v 1.5 0.1 7.89591e-016
vt 59.0551 -3.10862e-014
vt 59.0551 59.0551
f 7/11/3 9/12/3 8/13/3

v 1.45 0.1 9.92628e-016
vt 57.0866 -3.90799e-014
f 9/12/3 7/11/3 10/14/3

usemtl M_0133_Gray
v 0 0.1 -0
f 7/11/3 11/2/3 10/14/3

v -8.3471e-016 0.1 -1.5
vt -3.28626e-014 59.0551
f 11/2/3 7/11/3 12/15/3

vn 1.99148e-015 0 -1
vt 1.5047e-013 3.93701
f 1/9/4 12/16/4 7/7/4

vt 1.5047e-013 0
f 12/16/4 1/9/4 3/17/4

usemtl M_0135_DarkGray
vn -1 0 5.56473e-016
f 2/2/5 12/10/5 3/8/5

vt 0 3.93701
f 12/10/5 2/2/5 11/18/5

usemtl M_0133_Gray
vn -7.39026e-016 7.89591e-016 1
vt 57.0866 3.93701
f 2/2/6 10/19/6 11/18/6

vt 57.0866 -2.45454e-030
f 10/19/6 2/2/6 4/20/6

usemtl M_0130_Gainsboro
vt 57.0866 -2.89986e-028
vn 5.63993e-015 7.89591e-016 1
vt 59.0551 3.93701
f 4/21/7 9/22/7 10/19/7

vt 59.0551 -2.87532e-028
f 9/22/7 4/21/7 5/23/7

vt 59.0551 0
vn 1 0 -7.21911e-016
vt -7.37188e-014 3.93701
vt -7.37188e-014 0
f 6/24/8 9/25/8 5/26/8

f 9/25/8 6/24/8 8/22/8

